<svg width="47" height="44" viewBox="0 0 47 44" fill="none" xmlns="http://www.w3.org/2000/svg">
<path d="M45.6942 31.1279C42.9411 34.3837 39.509 36.9978 35.6388 38.787C31.7686 40.5763 27.5538 41.4973 23.2901 41.4854C19.0263 41.4736 14.8167 40.5293 10.9564 38.7187C7.09616 36.9081 3.67867 34.275 0.94357 31.004L3.53984 28.8331C5.95832 31.7254 8.98019 34.0537 12.3936 35.6547C15.807 37.2557 19.5292 38.0907 23.2994 38.1011C27.0696 38.1116 30.7965 37.2972 34.2187 35.7151C37.6409 34.133 40.6756 31.8215 43.11 28.9426L45.6942 31.1279Z" fill="white"/>
<path d="M12.6973 5.57324C14.4494 5.57324 15.9778 5.91807 17.2825 6.60771C18.5873 7.29736 19.5938 8.32251 20.3021 9.68316C21.029 11.0252 21.3925 12.6561 21.3925 14.5759V25.4239H17.7578V20.3913H7.5809V25.4239H4.0022V14.5759C4.0022 12.6561 4.35634 11.0252 5.06462 9.68316C5.79155 8.32251 6.80738 7.29736 8.11212 6.60771C9.41685 5.91807 10.9453 5.57324 12.6973 5.57324ZM17.7578 17.3438V14.2404C17.7578 12.4324 17.3105 11.0718 16.4158 10.1585C15.5211 9.2265 14.2723 8.76052 12.6694 8.76052C11.0664 8.76052 9.81759 9.2265 8.92291 10.1585C8.02824 11.0718 7.5809 12.4324 7.5809 14.2404V17.3438H17.7578Z" fill="white"/>
<path d="M40.6798 25.4239L36.6817 19.6923C36.5139 19.711 36.2623 19.7203 35.9268 19.7203H31.5093V25.4239H27.8747V5.85283H35.9268C37.623 5.85283 39.0954 6.13241 40.3443 6.69159C41.6117 7.25076 42.581 8.05224 43.252 9.09603C43.923 10.1398 44.2585 11.3793 44.2585 12.8145C44.2585 14.287 43.895 15.5545 43.1681 16.6169C42.4598 17.6793 41.4346 18.4715 40.0926 18.9934L44.594 25.4239H40.6798ZM40.5959 12.8145C40.5959 11.5657 40.1858 10.6058 39.3657 9.93479C38.5456 9.26378 37.3434 8.92828 35.759 8.92828H31.5093V16.7287H35.759C37.3434 16.7287 38.5456 16.3932 39.3657 15.7222C40.1858 15.0326 40.5959 14.0633 40.5959 12.8145Z" fill="white"/>
</svg>
